<svg aria-hidden="true" style="position: absolute; width: 0; height: 0; overflow: hidden;" version="1.1" xmlns="http://www.w3.org/2000/svg" xmlns:xlink="http://www.w3.org/1999/xlink">
<defs>
<symbol id="icon-dollar-sign" viewBox="0 0 24 24">
<path d="M11 11h-1.5c-0.691 0-1.314-0.279-1.768-0.732s-0.732-1.077-0.732-1.768 0.279-1.314 0.732-1.768 1.077-0.732 1.768-0.732h1.5zM13 13h1.5c0.691 0 1.314 0.279 1.768 0.732s0.732 1.077 0.732 1.768-0.279 1.314-0.732 1.768-1.077 0.732-1.768 0.732h-1.5zM17 4h-4v-3c0-0.552-0.448-1-1-1s-1 0.448-1 1v3h-1.5c-1.242 0-2.369 0.505-3.182 1.318s-1.318 1.94-1.318 3.182 0.505 2.369 1.318 3.182 1.94 1.318 3.182 1.318h1.5v5h-5c-0.552 0-1 0.448-1 1s0.448 1 1 1h5v3c0 0.552 0.448 1 1 1s1-0.448 1-1v-3h1.5c1.242 0 2.369-0.505 3.182-1.318s1.318-1.94 1.318-3.182-0.505-2.369-1.318-3.182-1.94-1.318-3.182-1.318h-1.5v-5h4c0.552 0 1-0.448 1-1s-0.448-1-1-1z"></path>
</symbol>
<symbol id="icon-percent" viewBox="0 0 24 24">
<path d="M18.293 4.293l-14 14c-0.391 0.391-0.391 1.024 0 1.414s1.024 0.391 1.414 0l14-14c0.391-0.391 0.391-1.024 0-1.414s-1.024-0.391-1.414 0zM10 6.5c0-0.966-0.393-1.843-1.025-2.475s-1.509-1.025-2.475-1.025-1.843 0.393-2.475 1.025-1.025 1.509-1.025 2.475 0.393 1.843 1.025 2.475 1.509 1.025 2.475 1.025 1.843-0.393 2.475-1.025 1.025-1.509 1.025-2.475zM8 6.5c0 0.414-0.167 0.788-0.439 1.061s-0.647 0.439-1.061 0.439-0.788-0.167-1.061-0.439-0.439-0.647-0.439-1.061 0.167-0.788 0.439-1.061 0.647-0.439 1.061-0.439 0.788 0.167 1.061 0.439 0.439 0.647 0.439 1.061zM21 17.5c0-0.966-0.393-1.843-1.025-2.475s-1.509-1.025-2.475-1.025-1.843 0.393-2.475 1.025-1.025 1.509-1.025 2.475 0.393 1.843 1.025 2.475 1.509 1.025 2.475 1.025 1.843-0.393 2.475-1.025 1.025-1.509 1.025-2.475zM19 17.5c0 0.414-0.167 0.788-0.439 1.061s-0.647 0.439-1.061 0.439-0.788-0.167-1.061-0.439-0.439-0.647-0.439-1.061 0.167-0.788 0.439-1.061 0.647-0.439 1.061-0.439 0.788 0.167 1.061 0.439 0.439 0.647 0.439 1.061z"></path>
</symbol>
</defs>
</svg>
